<?xml version="1.0" standalone="no"?>
<!DOCTYPE svg PUBLIC "-//W3C//DTD SVG 20010904//EN"
 "http://www.w3.org/TR/2001/REC-SVG-20010904/DTD/svg10.dtd">
<svg version="1.0" xmlns="http://www.w3.org/2000/svg"
 width="128.000000pt" height="128.000000pt" viewBox="0 0 128.000000 128.000000"
 preserveAspectRatio="xMidYMid meet">
<metadata>
Created by potrace 1.14, written by Peter Selinger 2001-2017
</metadata>
<g transform="translate(0.000000,128.000000) scale(0.100000,-0.100000)"
fill="#000000" stroke="none">
<path d="M654 905 c-13 -33 4 -45 61 -45 54 0 55 0 55 -29 0 -25 -4 -30 -27
-33 -20 -2 -29 -9 -31 -26 -3 -18 2 -23 27 -28 26 -5 31 -11 31 -35 0 -27 -2
-28 -57 -31 -50 -3 -58 -6 -58 -23 0 -17 8 -20 58 -23 55 -3 57 -2 57 23 0 18
5 25 19 25 24 0 45 25 37 45 -3 8 -17 15 -31 15 -21 0 -25 5 -25 30 0 23 5 30
19 30 10 0 24 6 30 14 17 20 3 46 -25 46 -20 0 -24 5 -24 30 0 30 -1 30 -55
30 -40 0 -57 -4 -61 -15z"/>
<path d="M152 788 c-8 -8 -12 -62 -12 -175 l0 -163 45 0 c44 0 45 -1 45 -33 0
-36 15 -57 41 -57 27 0 49 28 49 61 0 27 2 29 40 29 l41 0 -3 83 -3 82 -35 0
-35 0 -3 -82 -3 -83 -44 0 -45 0 0 159 c0 132 -3 162 -16 175 -18 19 -45 21
-62 4z"/>
<path d="M506 784 c-13 -13 -16 -43 -16 -175 l0 -159 -41 0 -40 0 3 -36 c6
-72 70 -72 76 0 3 36 4 36 48 36 l44 0 0 163 c0 168 -4 187 -41 187 -10 0 -25
-7 -33 -16z"/>
<path d="M960 755 c0 -43 -1 -45 -28 -45 -46 0 -52 -15 -52 -130 0 -115 6
-130 52 -130 27 0 28 -2 28 -45 l0 -45 78 0 c80 0 102 9 102 41 0 36 -28 49
-106 49 l-75 0 3 43 c3 39 5 42 37 47 67 10 67 70 0 80 -32 5 -34 8 -37 48
l-3 42 75 0 c78 0 106 13 106 49 0 32 -22 41 -102 41 l-78 0 0 -45z"/>
</g>
</svg>
