<svg width="359" height="49" viewBox="0 0 359 49" fill="none" xmlns="http://www.w3.org/2000/svg">
<path d="M18.1468 32.7857L25.3549 17.6774H31.6726L38.8807 33.2309L46.0889 17.6774H57.3464L42.3585 46.3176H35.5294L28.3874 30.6377L21.5583 46.3176H14.7292L0 17.6774H11.3177L18.1468 32.7857Z" fill="black"/>
<path d="M71.8289 33.8627C71.871 38.1647 73.9167 40.3127 77.96 40.3127C79.1874 40.3127 80.1682 40.1142 80.9023 39.7111C81.6363 39.3079 82.3282 38.604 82.96 37.5931H92.6952C92.3583 38.8146 91.9973 39.7833 91.6182 40.4993C91.2392 41.2153 90.7518 41.9313 90.1621 42.6533C88.8565 44.1695 87.1357 45.3488 85.0117 46.1912C82.8818 47.0335 80.5292 47.4547 77.96 47.4547C75.3908 47.4547 73.2188 47.0997 71.1971 46.3777C69.1755 45.6617 67.4546 44.6388 66.0407 43.3151C64.6267 41.9854 63.5317 40.3849 62.7555 38.5137C61.9733 36.6365 61.5822 34.5426 61.5822 32.2201C61.5822 29.8976 61.9553 27.7316 62.6893 25.8363C63.4234 23.941 64.4944 22.3284 65.8842 20.9987C67.2802 19.669 68.9528 18.6522 70.9143 17.9362C72.8698 17.2202 75.0779 16.8591 77.5208 16.8591C82.4125 16.8591 86.2332 18.2731 88.9949 21.095C91.7566 23.9169 93.1345 27.8399 93.1345 32.8519V33.8687H71.8289V33.8627ZM83.7121 27.9843C83.3752 26.5041 82.6772 25.3669 81.6243 24.5667C80.5713 23.7665 79.2897 23.3694 77.7675 23.3694C76.2452 23.3694 74.9336 23.7725 73.9408 24.5667C72.948 25.3669 72.3283 26.5101 72.0756 27.9843H83.7121Z" fill="black"/>
<path d="M112.545 20.4873C113.814 19.1696 115.156 18.219 116.57 17.6233C117.984 17.0276 119.621 16.7328 121.486 16.7328C123.513 16.7328 125.415 17.1239 127.196 17.9001C128.971 18.6823 130.505 19.7412 131.793 21.095C133.08 22.4428 134.097 24.0432 134.837 25.8964C135.577 27.7556 135.95 29.7532 135.95 31.9012C135.95 34.0492 135.577 36.0649 134.837 37.9361C134.097 39.8134 133.074 41.4439 131.762 42.8398C130.451 44.2297 128.911 45.3127 127.13 46.0949C125.355 46.8771 123.453 47.2622 121.426 47.2622C119.398 47.2622 117.785 46.9313 116.353 46.2754C114.915 45.6196 113.646 44.5666 112.545 43.1226V46.3175H102.424V0H112.545V20.4873ZM118.808 25.5174C117.876 25.5174 117.015 25.6858 116.215 26.0228C115.415 26.3597 114.717 26.817 114.127 27.4006C113.538 27.9843 113.074 28.6702 112.731 29.4644C112.394 30.2586 112.226 31.089 112.226 31.9674C112.226 32.8459 112.394 33.7424 112.731 34.5366C113.068 35.3308 113.532 36.0167 114.127 36.6064C114.711 37.19 115.409 37.6473 116.215 37.9842C117.015 38.3152 117.876 38.4836 118.808 38.4836C119.693 38.4836 120.523 38.3152 121.305 37.9842C122.087 37.6473 122.779 37.19 123.393 36.6064C124.001 36.0228 124.476 35.3428 124.813 34.5667C125.15 33.7965 125.318 32.9722 125.318 32.0938C125.318 31.2153 125.15 30.3188 124.813 29.5246C124.476 28.7304 124.013 28.0324 123.423 27.4247C122.834 26.823 122.136 26.3537 121.335 26.0168C120.535 25.6798 119.693 25.5114 118.808 25.5114V25.5174Z" fill="black"/>
<path d="M158.194 20.391L159.392 20.4572C160.824 20.4572 161.973 20.024 162.833 19.1576C163.694 18.2912 164.133 17.142 164.133 15.7099C164.133 14.4885 163.724 13.4897 162.9 12.7075C162.075 11.9314 161.034 11.5403 159.771 11.5403C158.423 11.5403 157.358 11.9615 156.576 12.8038C155.794 13.6462 155.385 14.8255 155.342 16.3477H145.156C145.367 14.7894 145.631 13.5018 145.95 12.4909C146.263 11.4801 146.72 10.4693 147.31 9.45846C148.574 7.26833 150.373 5.56557 152.719 4.36822C155.054 3.17087 157.719 2.56317 160.715 2.56317C162.737 2.56317 164.59 2.85198 166.263 3.41756C167.942 3.98916 169.362 4.80745 170.535 5.88446C171.708 6.96148 172.623 8.23704 173.267 9.71117C173.916 11.1913 174.241 12.858 174.241 14.7051C174.241 16.7268 173.886 18.4476 173.176 19.8555C172.46 21.2695 171.335 22.4789 169.783 23.4957C170.752 23.8327 171.492 24.1696 172.021 24.5065C172.545 24.8435 173.104 25.3489 173.694 26.0228C174.662 27.1239 175.39 28.3874 175.896 29.8134C176.401 31.2454 176.654 32.7436 176.654 34.3019C176.654 36.3236 176.245 38.1948 175.427 39.8976C174.608 41.6064 173.477 43.0805 172.033 44.32C170.589 45.5654 168.856 46.5281 166.841 47.202C164.825 47.8699 162.617 48.2128 160.21 48.2128C153.381 48.2128 148.345 45.4752 145.102 39.9939C144.344 38.6882 143.802 37.4969 143.489 36.4199C143.17 35.3489 142.99 34.1575 142.954 32.8459H154.145C154.271 34.7472 154.849 36.1972 155.884 37.2141C156.919 38.2249 158.339 38.7303 160.156 38.7303C161.798 38.7303 163.158 38.2129 164.235 37.178C165.312 36.1431 165.848 34.8314 165.848 33.2249C165.848 31.6184 165.294 30.2767 164.169 29.1816C163.056 28.0866 161.696 27.539 160.096 27.539C159.759 27.539 159.476 27.5631 159.241 27.6052C159.013 27.6473 158.664 27.7316 158.2 27.8579V20.3971L158.194 20.391Z" fill="black"/>
<path d="M194.993 33.8627C195.035 38.1647 197.081 40.3127 201.124 40.3127C202.352 40.3127 203.333 40.1142 204.067 39.7111C204.801 39.3079 205.493 38.604 206.124 37.5931H215.86C215.523 38.8146 215.162 39.7833 214.783 40.4993C214.404 41.2153 213.916 41.9313 213.327 42.6533C212.021 44.1695 210.3 45.3488 208.176 46.1912C206.046 47.0335 203.694 47.4547 201.124 47.4547C198.555 47.4547 196.383 47.0997 194.362 46.3777C192.34 45.6617 190.619 44.6388 189.205 43.3151C187.791 41.9854 186.696 40.3849 185.92 38.5137C185.138 36.6365 184.747 34.5426 184.747 32.2201C184.747 29.8976 185.12 27.7316 185.854 25.8363C186.588 23.941 187.659 22.3284 189.049 20.9987C190.445 19.669 192.117 18.6522 194.079 17.9362C196.034 17.2202 198.242 16.8591 200.685 16.8591C205.577 16.8591 209.398 18.2731 212.159 21.095C214.921 23.9169 216.299 27.8399 216.299 32.8519V33.8687H194.993V33.8627ZM206.877 27.9843C206.54 26.5041 205.842 25.3669 204.789 24.5667C203.736 23.7665 202.454 23.3694 200.932 23.3694C199.41 23.3694 198.098 23.7725 197.105 24.5667C196.112 25.3669 195.493 26.5101 195.24 27.9843H206.877Z" fill="black"/>
<path d="M238.682 32.3465L245.637 17.6774H256.955L242.033 46.3176H235.27L220.475 17.6774H231.852L238.682 32.3465Z" fill="black"/>
<path d="M271.431 33.8627C271.473 38.1647 273.519 40.3127 277.562 40.3127C278.79 40.3127 279.77 40.1142 280.504 39.7111C281.239 39.3079 281.93 38.604 282.562 37.5931H292.297C291.961 38.8146 291.599 39.7833 291.22 40.4993C290.841 41.2153 290.354 41.9313 289.764 42.6533C288.459 44.1695 286.738 45.3488 284.614 46.1912C282.484 47.0335 280.131 47.4547 277.562 47.4547C274.993 47.4547 272.821 47.0997 270.799 46.3777C268.778 45.6617 267.057 44.6388 265.643 43.3151C264.229 41.9854 263.134 40.3849 262.358 38.5137C261.576 36.6365 261.184 34.5426 261.184 32.2201C261.184 29.8976 261.557 27.7316 262.292 25.8363C263.026 23.941 264.097 22.3284 265.486 20.9987C266.882 19.669 268.555 18.6522 270.517 17.9362C272.472 17.2202 274.68 16.8591 277.123 16.8591C282.015 16.8591 285.835 18.2731 288.597 21.095C291.359 23.9169 292.737 27.8399 292.737 32.8519V33.8687H271.431V33.8627ZM283.314 27.9843C282.977 26.5041 282.279 25.3669 281.226 24.5667C280.174 23.7665 278.892 23.3694 277.37 23.3694C275.847 23.3694 274.536 23.7725 273.543 24.5667C272.55 25.3669 271.93 26.5101 271.678 27.9843H283.314Z" fill="black"/>
<path d="M311.768 17.6774V21.2815C313.116 19.681 314.469 18.5739 315.817 17.9602C317.165 17.3525 318.874 17.0457 320.938 17.0457C324.481 17.0457 327.237 18.0986 329.223 20.2105C330.234 21.2274 330.932 22.2984 331.311 23.4355C331.69 24.5727 331.882 26.1371 331.882 28.1166V46.3296H321.762V31.8531C321.762 31.1371 321.756 30.5474 321.732 30.0841C321.708 29.6208 321.678 29.2297 321.642 28.9109C321.599 28.598 321.533 28.3092 321.449 28.0625C321.359 27.8098 321.256 27.5571 321.13 27.3044C320.793 26.6305 320.258 26.089 319.518 25.6919C318.783 25.2947 317.971 25.0902 317.081 25.0902C316.19 25.0902 315.45 25.2586 314.71 25.5956C313.976 25.9325 313.35 26.3958 312.845 26.9855C312.466 27.4909 312.195 28.0384 312.027 28.6281C311.852 29.2177 311.768 29.9999 311.768 30.9626V46.3296H301.648V17.6774H311.768Z" fill="black"/>
<path d="M353.248 46.3175H343.128V26.0829H339.776V17.6774H343.128V9.07939H353.248V17.6774H359V26.0829H353.248V46.3175Z" fill="black"/>
</svg>
