<?xml version="1.0" encoding="UTF-8" standalone="no"?>
<!-- Created with Keyshape -->
<svg xmlns="http://www.w3.org/2000/svg" viewBox="0 0 650 390" text-rendering="geometricPrecision" shape-rendering="geometricPrecision" style="white-space: pre;">
    <defs>
        <linearGradient id="Gradient-0" x1="639.251" y1="535.25" x2="796.512" y2="535.25" gradientUnits="userSpaceOnUse">
            <stop offset="0" stop-color="#696eff"/>
            <stop offset="1" stop-color="#f8acff"/>
        </linearGradient>
        <linearGradient id="Gradient-1" x1="505.754" y1="421.148" x2="611.166" y2="421.148" gradientUnits="userSpaceOnUse">
            <stop offset="0" stop-color="#696eff"/>
            <stop offset="1" stop-color="#f8acff"/>
        </linearGradient>
        <linearGradient id="Gradient-2" x1="202.719" y1="535.446" x2="464.819" y2="535.446" gradientUnits="userSpaceOnUse">
            <stop offset="0" stop-color="#696eff"/>
            <stop offset="1" stop-color="#f8acff"/>
        </linearGradient>
        <linearGradient id="Gradient-3" x1="639.251" y1="535.25" x2="796.512" y2="535.25" gradientUnits="userSpaceOnUse">
            <stop offset="0" stop-color="#ff0f7b"/>
            <stop offset="1" stop-color="#f89b29"/>
        </linearGradient>
        <linearGradient id="Gradient-4" x1="505.754" y1="421.148" x2="611.166" y2="421.148" gradientUnits="userSpaceOnUse">
            <stop offset="0" stop-color="#ff0f7b"/>
            <stop offset="1" stop-color="#f89b29"/>
        </linearGradient>
        <linearGradient id="Gradient-5" x1="202.719" y1="535.446" x2="464.819" y2="535.446" gradientUnits="userSpaceOnUse">
            <stop offset="0" stop-color="#ff0f7b"/>
            <stop offset="1" stop-color="#f89b29"/>
        </linearGradient>
        <linearGradient id="Gradient-6" x1="639.251" y1="535.25" x2="796.512" y2="535.25" gradientUnits="userSpaceOnUse">
            <stop offset="0" stop-color="#40c9ff"/>
            <stop offset="1" stop-color="#e81cff"/>
        </linearGradient>
        <linearGradient id="Gradient-7" x1="505.754" y1="421.148" x2="611.166" y2="421.148" gradientUnits="userSpaceOnUse">
            <stop offset="0" stop-color="#40c9ff"/>
            <stop offset="1" stop-color="#e81cff"/>
        </linearGradient>
        <linearGradient id="Gradient-8" x1="202.719" y1="535.446" x2="464.819" y2="535.446" gradientUnits="userSpaceOnUse">
            <stop offset="0" stop-color="#40c9ff"/>
            <stop offset="1" stop-color="#e81cff"/>
        </linearGradient>
        <linearGradient id="Gradient-9" x1="639.251" y1="535.25" x2="796.512" y2="535.25" gradientUnits="userSpaceOnUse">
            <stop offset="0" stop-color="#ffa585"/>
            <stop offset="1" stop-color="#ffeda0"/>
        </linearGradient>
        <linearGradient id="Gradient-10" x1="505.754" y1="421.148" x2="611.166" y2="421.148" gradientUnits="userSpaceOnUse">
            <stop offset="0" stop-color="#ffa585"/>
            <stop offset="1" stop-color="#ffeda0"/>
        </linearGradient>
        <linearGradient id="Gradient-11" x1="202.719" y1="535.446" x2="464.819" y2="535.446" gradientUnits="userSpaceOnUse">
            <stop offset="0" stop-color="#ffa585"/>
            <stop offset="1" stop-color="#ffeda0"/>
        </linearGradient>
    </defs>
    <style>
@keyframes g4_t { 0% { transform: translate(-174.6px,-304.000006px); } 16.6666% { transform: translate(-174.6px,-304.000006px); } 30% { transform: translate(-154.6px,-304.000006px); } 53.3333% { transform: translate(-154.6px,-304px); } 66.6666% { transform: translate(-174.6px,-304px); } 100% { transform: translate(-174.6px,-304px); } }
@keyframes g3_t { 0% { transform: translate(-174.6px,-304.000006px); } 16.6666% { transform: translate(-174.6px,-304.000006px); } 30% { transform: translate(-194.6px,-304.000006px); } 53.3333% { transform: translate(-194.6px,-304px); } 66.6666% { transform: translate(-174.6px,-304px); } 100% { transform: translate(-174.6px,-304px); } }
@keyframes g2_t { 0% { transform: translate(-174.6px,-304.000006px); } 16.6666% { transform: translate(-174.6px,-304.000006px); } 30% { transform: translate(-174.6px,-324.000006px); } 53.3333% { transform: translate(-174.6px,-324px); } 66.6666% { transform: translate(-174.6px,-304px); } 100% { transform: translate(-174.6px,-304px); } }
@keyframes g1_t { 0% { transform: translate(-174.6px,-304.000006px); } 16.6666% { transform: translate(-174.6px,-304.000006px); } 30% { transform: translate(-174.6px,-284.000006px); } 53.3333% { transform: translate(-174.6px,-284px); } 66.6666% { transform: translate(-174.6px,-304px); } 100% { transform: translate(-174.6px,-304px); } }
@keyframes a0_f { 0% { fill: #000000; } 16.6667% { fill: #000000; animation-timing-function: cubic-bezier(0.42,0,0.58,1); } 30% { fill: #ffffff; animation-timing-function: cubic-bezier(0.42,0,0.58,1); } 53.3333% { fill: #ffffff; animation-timing-function: cubic-bezier(0.42,0,0.58,1); } 66.6667% { fill: #000000; } 100% { fill: #000000; } }
@keyframes a1_f { 0% { fill: #000000; } 16.6667% { fill: #000000; animation-timing-function: cubic-bezier(0.42,0,0.58,1); } 30% { fill: #ffffff; animation-timing-function: cubic-bezier(0.42,0,0.58,1); } 53.3333% { fill: #ffffff; animation-timing-function: cubic-bezier(0.42,0,0.58,1); } 66.6667% { fill: #000000; } 100% { fill: #000000; } }
@keyframes W_f { 0% { fill: #000000; } 16.6667% { fill: #000000; animation-timing-function: cubic-bezier(0.42,0,0.58,1); } 30% { fill: #ffffff; animation-timing-function: cubic-bezier(0.42,0,0.58,1); } 53.3333% { fill: #ffffff; animation-timing-function: cubic-bezier(0.42,0,0.58,1); } 66.6667% { fill: #000000; } 100% { fill: #000000; } }
    </style>
    <g id="g4" transform="translate(325,195.9) translate(-499.6,-499.9)" style="mix-blend-mode: multiply; animation: 3s linear infinite both g4_t;">
        <path class="st0" d="M770.3,404.2L691.7,404.2L691.7,456.6L770.3,456.6C784.8,456.6,796.5,444.9,796.5,430.4C796.5,415.9,784.8,404.2,770.3,404.2ZM770.3,613.9L691.7,613.9L691.7,666.3L770.3,666.3C784.8,666.3,796.5,654.6,796.5,640.1C796.5,625.6,784.8,613.9,770.3,613.9ZM744.1,535.3C744.1,520.8,732.4,509.1,717.9,509.1L691.7,509.1L691.7,561.5L691.7,561.5L717.9,561.5C732.4,561.5,744.1,549.7,744.1,535.3ZM639.3,487.6L639.3,582.9C639.3,600,653.2,613.9,670.3,613.9L691.7,613.9L691.7,456.6L670.3,456.6C653.1,456.6,639.3,470.5,639.3,487.6Z" fill="url(#Gradient-0)" transform="translate(717.9,535.25) translate(-717.9,-535.25)"/>
        <path d="M505.8,489.6L505.8,489.6L505.8,493.2C505.8,501.9,512.8,508.9,521.5,508.9L576,508.9L576,473.8L521.5,473.8C512.8,473.9,505.8,480.9,505.8,489.6ZM595.4,438.7L576,438.7L576,473.8L595.4,473.8L595.4,473.8C604.1,473.8,611.1,466.8,611.1,458.1L611.1,454.5C611.2,445.8,604.1,438.7,595.4,438.7ZM595.4,368.4L576,368.4L576,403.5L595.4,403.5L595.4,403.5C604.1,403.5,611.1,396.5,611.1,387.8L611.1,384.2C611.2,375.5,604.1,368.4,595.4,368.4ZM556.6,438.7L576,438.7L576,403.6L556.6,403.6L556.6,403.6C547.9,403.6,540.9,410.6,540.9,419.3L540.9,422.9C540.9,431.7,547.9,438.7,556.6,438.7ZM521.5,368.4L576,368.4L576,333.3L521.5,333.3L521.5,333.3C512.8,333.3,505.8,340.3,505.8,349L505.8,352.6C505.8,361.4,512.8,368.4,521.5,368.4Z" fill="url(#Gradient-1)" transform="translate(558.451,421.1) translate(-558.451,-421.1)"/>
        <path id="W_00000086688205879762218510000004774059656145015181_" d="M255.1,430.6L255.1,614.1L202.7,614.1L202.7,430.6C202.7,416.1,214.4,404.4,228.9,404.4L228.9,404.4C243.4,404.4,255.1,416.1,255.1,430.6ZM255.1,640.3L255.1,640.3C255.1,654.8,266.8,666.5,281.3,666.5C295.8,666.5,307.5,654.8,307.5,640.3L307.5,614.1L255.1,614.1L255.1,640.3ZM438.6,404.4L438.6,404.4C453.1,404.4,464.8,416.1,464.8,430.6L464.8,614.1L412.4,614.1L412.4,430.6C412.4,416.1,424.1,404.4,438.6,404.4ZM412.4,614.1L360,614.1L360,640.3C360,654.8,371.7,666.5,386.2,666.5C400.7,666.5,412.4,654.8,412.4,640.3L412.4,640.3L412.4,614.1ZM360,535.4C360,520.9,348.3,509.2,333.8,509.2C319.3,509.2,307.6,520.9,307.6,535.4L307.6,614L360,614L360,535.4Z" fill="url(#Gradient-2)" transform="translate(333.75,535.45) translate(-333.75,-535.45)"/>
    </g>
    <g id="g3" transform="translate(325,195.9) translate(-499.6,-499.9)" style="mix-blend-mode: multiply; animation: 3s linear infinite both g3_t;">
        <path d="M770.3,404.2L691.7,404.2L691.7,456.6L770.3,456.6C784.8,456.6,796.5,444.9,796.5,430.4C796.5,415.9,784.8,404.2,770.3,404.2ZM770.3,613.9L691.7,613.9L691.7,666.3L770.3,666.3C784.8,666.3,796.5,654.6,796.5,640.1C796.5,625.6,784.8,613.9,770.3,613.9ZM744.1,535.3C744.1,520.8,732.4,509.1,717.9,509.1L691.7,509.1L691.7,561.5L691.7,561.5L717.9,561.5C732.4,561.5,744.1,549.7,744.1,535.3ZM639.3,487.6L639.3,582.9C639.3,600,653.2,613.9,670.3,613.9L691.7,613.9L691.7,456.6L670.3,456.6C653.1,456.6,639.3,470.5,639.3,487.6Z" fill="url(#Gradient-3)" transform="translate(717.9,535.25) translate(-717.9,-535.25)"/>
        <path d="M505.8,489.6L505.8,489.6L505.8,493.2C505.8,501.9,512.8,508.9,521.5,508.9L576,508.9L576,473.8L521.5,473.8C512.8,473.9,505.8,480.9,505.8,489.6ZM595.4,438.7L576,438.7L576,473.8L595.4,473.8L595.4,473.8C604.1,473.8,611.1,466.8,611.1,458.1L611.1,454.5C611.2,445.8,604.1,438.7,595.4,438.7ZM595.4,368.4L576,368.4L576,403.5L595.4,403.5L595.4,403.5C604.1,403.5,611.1,396.5,611.1,387.8L611.1,384.2C611.2,375.5,604.1,368.4,595.4,368.4ZM556.6,438.7L576,438.7L576,403.6L556.6,403.6L556.6,403.6C547.9,403.6,540.9,410.6,540.9,419.3L540.9,422.9C540.9,431.7,547.9,438.7,556.6,438.7ZM521.5,368.4L576,368.4L576,333.3L521.5,333.3L521.5,333.3C512.8,333.3,505.8,340.3,505.8,349L505.8,352.6C505.8,361.4,512.8,368.4,521.5,368.4Z" fill="url(#Gradient-4)" transform="translate(558.451,421.1) translate(-558.451,-421.1)"/>
        <path id="W_00000005253669680701041570000006881662530682415291_" d="M255.1,430.6L255.1,614.1L202.7,614.1L202.7,430.6C202.7,416.1,214.4,404.4,228.9,404.4L228.9,404.4C243.4,404.4,255.1,416.1,255.1,430.6ZM255.1,640.3L255.1,640.3C255.1,654.8,266.8,666.5,281.3,666.5C295.8,666.5,307.5,654.8,307.5,640.3L307.5,614.1L255.1,614.1L255.1,640.3ZM438.6,404.4L438.6,404.4C453.1,404.4,464.8,416.1,464.8,430.6L464.8,614.1L412.4,614.1L412.4,430.6C412.4,416.1,424.1,404.4,438.6,404.4ZM412.4,614.1L360,614.1L360,640.3C360,654.8,371.7,666.5,386.2,666.5C400.7,666.5,412.4,654.8,412.4,640.3L412.4,640.3L412.4,614.1ZM360,535.4C360,520.9,348.3,509.2,333.8,509.2C319.3,509.2,307.6,520.9,307.6,535.4L307.6,614L360,614L360,535.4Z" fill="url(#Gradient-5)" transform="translate(333.75,535.45) translate(-333.75,-535.45)"/>
    </g>
    <g id="g2" transform="translate(325,195.9) translate(-499.6,-499.9)" style="mix-blend-mode: multiply; animation: 3s linear infinite both g2_t;">
        <path d="M770.3,404.2L691.7,404.2L691.7,456.6L770.3,456.6C784.8,456.6,796.5,444.9,796.5,430.4C796.5,415.9,784.8,404.2,770.3,404.2ZM770.3,613.9L691.7,613.9L691.7,666.3L770.3,666.3C784.8,666.3,796.5,654.6,796.5,640.1C796.5,625.6,784.8,613.9,770.3,613.9ZM744.1,535.3C744.1,520.8,732.4,509.1,717.9,509.1L691.7,509.1L691.7,561.5L691.7,561.5L717.9,561.5C732.4,561.5,744.1,549.7,744.1,535.3ZM639.3,487.6L639.3,582.9C639.3,600,653.2,613.9,670.3,613.9L691.7,613.9L691.7,456.6L670.3,456.6C653.1,456.6,639.3,470.5,639.3,487.6Z" fill="url(#Gradient-6)" transform="translate(717.9,535.25) translate(-717.9,-535.25)"/>
        <path d="M505.8,489.6L505.8,489.6L505.8,493.2C505.8,501.9,512.8,508.9,521.5,508.9L576,508.9L576,473.8L521.5,473.8C512.8,473.9,505.8,480.9,505.8,489.6ZM595.4,438.7L576,438.7L576,473.8L595.4,473.8L595.4,473.8C604.1,473.8,611.1,466.8,611.1,458.1L611.1,454.5C611.2,445.8,604.1,438.7,595.4,438.7ZM595.4,368.4L576,368.4L576,403.5L595.4,403.5L595.4,403.5C604.1,403.5,611.1,396.5,611.1,387.8L611.1,384.2C611.2,375.5,604.1,368.4,595.4,368.4ZM556.6,438.7L576,438.7L576,403.6L556.6,403.6L556.6,403.6C547.9,403.6,540.9,410.6,540.9,419.3L540.9,422.9C540.9,431.7,547.9,438.7,556.6,438.7ZM521.5,368.4L576,368.4L576,333.3L521.5,333.3L521.5,333.3C512.8,333.3,505.8,340.3,505.8,349L505.8,352.6C505.8,361.4,512.8,368.4,521.5,368.4Z" fill="url(#Gradient-7)" transform="translate(558.451,421.1) translate(-558.451,-421.1)"/>
        <path id="W_00000114786137879468544000000004108418627213530510_" d="M255.1,430.6L255.1,614.1L202.7,614.1L202.7,430.6C202.7,416.1,214.4,404.4,228.9,404.4L228.9,404.4C243.4,404.4,255.1,416.1,255.1,430.6ZM255.1,640.3L255.1,640.3C255.1,654.8,266.8,666.5,281.3,666.5C295.8,666.5,307.5,654.8,307.5,640.3L307.5,614.1L255.1,614.1L255.1,640.3ZM438.6,404.4L438.6,404.4C453.1,404.4,464.8,416.1,464.8,430.6L464.8,614.1L412.4,614.1L412.4,430.6C412.4,416.1,424.1,404.4,438.6,404.4ZM412.4,614.1L360,614.1L360,640.3C360,654.8,371.7,666.5,386.2,666.5C400.7,666.5,412.4,654.8,412.4,640.3L412.4,640.3L412.4,614.1ZM360,535.4C360,520.9,348.3,509.2,333.8,509.2C319.3,509.2,307.6,520.9,307.6,535.4L307.6,614L360,614L360,535.4Z" fill="url(#Gradient-8)" transform="translate(333.75,535.45) translate(-333.75,-535.45)"/>
    </g>
    <g id="g1" transform="translate(325,195.9) translate(-499.6,-499.9)" style="mix-blend-mode: multiply; animation: 3s linear infinite both g1_t;">
        <path d="M770.3,404.2L691.7,404.2L691.7,456.6L770.3,456.6C784.8,456.6,796.5,444.9,796.5,430.4C796.5,415.9,784.8,404.2,770.3,404.2ZM770.3,613.9L691.7,613.9L691.7,666.3L770.3,666.3C784.8,666.3,796.5,654.6,796.5,640.1C796.5,625.6,784.8,613.9,770.3,613.9ZM744.1,535.3C744.1,520.8,732.4,509.1,717.9,509.1L691.7,509.1L691.7,561.5L691.7,561.5L717.9,561.5C732.4,561.5,744.1,549.7,744.1,535.3ZM639.3,487.6L639.3,582.9C639.3,600,653.2,613.9,670.3,613.9L691.7,613.9L691.7,456.6L670.3,456.6C653.1,456.6,639.3,470.5,639.3,487.6Z" fill="url(#Gradient-9)" transform="translate(717.9,535.25) translate(-717.9,-535.25)"/>
        <path d="M505.8,489.6L505.8,489.6L505.8,493.2C505.8,501.9,512.8,508.9,521.5,508.9L576,508.9L576,473.8L521.5,473.8C512.8,473.9,505.8,480.9,505.8,489.6ZM595.4,438.7L576,438.7L576,473.8L595.4,473.8L595.4,473.8C604.1,473.8,611.1,466.8,611.1,458.1L611.1,454.5C611.2,445.8,604.1,438.7,595.4,438.7ZM595.4,368.4L576,368.4L576,403.5L595.4,403.5L595.4,403.5C604.1,403.5,611.1,396.5,611.1,387.8L611.1,384.2C611.2,375.5,604.1,368.4,595.4,368.4ZM556.6,438.7L576,438.7L576,403.6L556.6,403.6L556.6,403.6C547.9,403.6,540.9,410.6,540.9,419.3L540.9,422.9C540.9,431.7,547.9,438.7,556.6,438.7ZM521.5,368.4L576,368.4L576,333.3L521.5,333.3L521.5,333.3C512.8,333.3,505.8,340.3,505.8,349L505.8,352.6C505.8,361.4,512.8,368.4,521.5,368.4Z" fill="url(#Gradient-10)" transform="translate(558.451,421.1) translate(-558.451,-421.1)"/>
        <path id="W_00000028293466677033745960000008121027493609967243_" d="M255.1,430.6L255.1,614.1L202.7,614.1L202.7,430.6C202.7,416.1,214.4,404.4,228.9,404.4L228.9,404.4C243.4,404.4,255.1,416.1,255.1,430.6ZM255.1,640.3L255.1,640.3C255.1,654.8,266.8,666.5,281.3,666.5C295.8,666.5,307.5,654.8,307.5,640.3L307.5,614.1L255.1,614.1L255.1,640.3ZM438.6,404.4L438.6,404.4C453.1,404.4,464.8,416.1,464.8,430.6L464.8,614.1L412.4,614.1L412.4,430.6C412.4,416.1,424.1,404.4,438.6,404.4ZM412.4,614.1L360,614.1L360,640.3C360,654.8,371.7,666.5,386.2,666.5C400.7,666.5,412.4,654.8,412.4,640.3L412.4,640.3L412.4,614.1ZM360,535.4C360,520.9,348.3,509.2,333.8,509.2C319.3,509.2,307.6,520.9,307.6,535.4L307.6,614L360,614L360,535.4Z" fill="url(#Gradient-11)" transform="translate(333.75,535.45) translate(-333.75,-535.45)"/>
    </g>
    <g id="black" transform="translate(325,195.9) translate(-499.6,-499.9)">
        <path d="M770.3,404.2L691.7,404.2L691.7,456.6L770.3,456.6C784.8,456.6,796.5,444.9,796.5,430.4C796.5,415.9,784.8,404.2,770.3,404.2ZM770.3,613.9L691.7,613.9L691.7,666.3L770.3,666.3C784.8,666.3,796.5,654.6,796.5,640.1C796.5,625.6,784.8,613.9,770.3,613.9ZM744.1,535.3C744.1,520.8,732.4,509.1,717.9,509.1L691.7,509.1L691.7,561.5L691.7,561.5L717.9,561.5C732.4,561.5,744.1,549.7,744.1,535.3ZM639.3,487.6L639.3,582.9C639.3,600,653.2,613.9,670.3,613.9L691.7,613.9L691.7,456.6L670.3,456.6C653.1,456.6,639.3,470.5,639.3,487.6Z" fill="#000000" transform="translate(717.9,535.25) translate(-717.9,-535.25)" style="animation: 3s linear infinite both a0_f;"/>
        <path d="M505.8,489.6L505.8,489.6L505.8,493.2C505.8,501.9,512.8,508.9,521.5,508.9L576,508.9L576,473.8L521.5,473.8C512.8,473.9,505.8,480.9,505.8,489.6ZM595.4,438.7L576,438.7L576,473.8L595.4,473.8L595.4,473.8C604.1,473.8,611.1,466.8,611.1,458.1L611.1,454.5C611.2,445.8,604.1,438.7,595.4,438.7ZM595.4,368.4L576,368.4L576,403.5L595.4,403.5L595.4,403.5C604.1,403.5,611.1,396.5,611.1,387.8L611.1,384.2C611.2,375.5,604.1,368.4,595.4,368.4ZM556.6,438.7L576,438.7L576,403.6L556.6,403.6L556.6,403.6C547.9,403.6,540.9,410.6,540.9,419.3L540.9,422.9C540.9,431.7,547.9,438.7,556.6,438.7ZM521.5,368.4L576,368.4L576,333.3L521.5,333.3L521.5,333.3C512.8,333.3,505.8,340.3,505.8,349L505.8,352.6C505.8,361.4,512.8,368.4,521.5,368.4Z" fill="#000000" transform="translate(558.451,421.1) translate(-558.451,-421.1)" style="animation: 3s linear infinite both a1_f;"/>
        <path id="W" d="M255.1,430.6L255.1,614.1L202.7,614.1L202.7,430.6C202.7,416.1,214.4,404.4,228.9,404.4L228.9,404.4C243.4,404.4,255.1,416.1,255.1,430.6ZM255.1,640.3L255.1,640.3C255.1,654.8,266.8,666.5,281.3,666.5C295.8,666.5,307.5,654.8,307.5,640.3L307.5,614.1L255.1,614.1L255.1,640.3ZM438.6,404.4L438.6,404.4C453.1,404.4,464.8,416.1,464.8,430.6L464.8,614.1L412.4,614.1L412.4,430.6C412.4,416.1,424.1,404.4,438.6,404.4ZM412.4,614.1L360,614.1L360,640.3C360,654.8,371.7,666.5,386.2,666.5C400.7,666.5,412.4,654.8,412.4,640.3L412.4,640.3L412.4,614.1ZM360,535.4C360,520.9,348.3,509.2,333.8,509.2C319.3,509.2,307.6,520.9,307.6,535.4L307.6,614L360,614L360,535.4Z" fill="#000000" transform="translate(333.75,535.45) translate(-333.75,-535.45)" style="animation: 3s linear infinite both W_f;"/>
    </g>
</svg>
